<svg width="330" height="47" viewBox="0 0 330 47" fill="none" xmlns="http://www.w3.org/2000/svg">
<path d="M22.606 46.682C17.894 46.682 13.864 45.752 10.516 43.892C7.168 42.032 4.58467 39.428 2.766 36.08C0.988667 32.6907 0.1 28.702 0.1 24.114C0.1 20.6833 0.596 17.604 1.588 14.876C2.62133 12.1067 4.10933 9.75067 6.052 7.808C7.99467 5.824 10.3507 4.29466 13.12 3.22C15.9307 2.14533 19.0927 1.608 22.606 1.608C24.6727 1.608 26.76 1.87667 28.868 2.414C31.0173 2.91 32.8773 3.63333 34.448 4.584C35.4813 5.16266 36.184 5.886 36.556 6.754C36.928 7.622 37.0313 8.49 36.866 9.358C36.742 10.226 36.3907 10.97 35.812 11.59C35.2747 12.21 34.5927 12.6027 33.766 12.768C32.9393 12.9333 32.0093 12.7473 30.976 12.21C29.736 11.466 28.434 10.9287 27.07 10.598C25.706 10.2673 24.3213 10.102 22.916 10.102C20.1467 10.102 17.8113 10.66 15.91 11.776C14.05 12.8507 12.6447 14.4213 11.694 16.488C10.7433 18.5547 10.268 21.0967 10.268 24.114C10.268 27.09 10.7433 29.632 11.694 31.74C12.6447 33.848 14.05 35.46 15.91 36.576C17.8113 37.6507 20.1467 38.188 22.916 38.188C24.2387 38.188 25.582 38.0227 26.946 37.692C28.3513 37.3613 29.6947 36.8447 30.976 36.142C32.0507 35.6047 33.0013 35.4187 33.828 35.584C34.696 35.708 35.3987 36.08 35.936 36.7C36.5147 37.2787 36.866 37.9813 36.99 38.808C37.1553 39.6347 37.0727 40.4613 36.742 41.288C36.4113 42.1147 35.7913 42.8173 34.882 43.396C33.3527 44.4293 31.472 45.2353 29.24 45.814C27.008 46.3927 24.7967 46.682 22.606 46.682ZM47.6908 46.558C46.1615 46.558 44.9835 46.1447 44.1568 45.318C43.3715 44.4913 42.9788 43.3133 42.9788 41.784V6.506C42.9788 4.93533 43.3715 3.75733 44.1568 2.972C44.9835 2.14533 46.1615 1.732 47.6908 1.732C49.1788 1.732 50.3155 2.14533 51.1008 2.972C51.9275 3.75733 52.3408 4.93533 52.3408 6.506V21.262H51.4728C52.4235 19.2367 53.8288 17.6867 55.6888 16.612C57.5901 15.496 59.7395 14.938 62.1368 14.938C64.5755 14.938 66.5801 15.4133 68.1508 16.364C69.7215 17.2733 70.8995 18.6787 71.6848 20.58C72.4701 22.44 72.8628 24.8167 72.8628 27.71V41.784C72.8628 43.3133 72.4495 44.4913 71.6228 45.318C70.8375 46.1447 69.6801 46.558 68.1508 46.558C66.6628 46.558 65.5055 46.1447 64.6788 45.318C63.8935 44.4913 63.5008 43.3133 63.5008 41.784V28.144C63.5008 26.036 63.1081 24.5273 62.3228 23.618C61.5788 22.6673 60.4215 22.192 58.8508 22.192C56.8668 22.192 55.2755 22.812 54.0768 24.052C52.9195 25.292 52.3408 26.9453 52.3408 29.012V41.784C52.3408 44.9667 50.7908 46.558 47.6908 46.558ZM94.4839 46.682C91.2185 46.682 88.3665 46.0413 85.9279 44.76C83.5305 43.4787 81.6705 41.6393 80.3479 39.242C79.0252 36.8447 78.3639 34.0133 78.3639 30.748C78.3639 28.3093 78.7359 26.1187 79.4799 24.176C80.2239 22.2333 81.2985 20.58 82.7039 19.216C84.1505 17.8107 85.8659 16.7567 87.8499 16.054C89.8339 15.31 92.0452 14.938 94.4839 14.938C97.7492 14.938 100.581 15.5787 102.978 16.86C105.417 18.1413 107.297 19.96 108.62 22.316C109.984 24.672 110.666 27.4827 110.666 30.748C110.666 33.228 110.273 35.4393 109.488 37.382C108.744 39.3247 107.669 40.9987 106.264 42.404C104.859 43.8093 103.143 44.884 101.118 45.628C99.1339 46.3307 96.9225 46.682 94.4839 46.682ZM94.4839 39.676C95.8479 39.676 97.0259 39.3453 98.0179 38.684C99.0099 38.0227 99.7952 37.0513 100.374 35.77C100.953 34.4473 101.242 32.7733 101.242 30.748C101.242 27.7307 100.622 25.5193 99.3819 24.114C98.1419 22.6673 96.5092 21.944 94.4839 21.944C93.1612 21.944 91.9832 22.254 90.9499 22.874C89.9579 23.494 89.1725 24.4653 88.5939 25.788C88.0565 27.0693 87.7879 28.7227 87.7879 30.748C87.7879 33.7653 88.4079 36.018 89.6479 37.506C90.8879 38.9527 92.4999 39.676 94.4839 39.676ZM128.159 46.558C126.919 46.558 125.865 46.2687 124.997 45.69C124.129 45.07 123.426 44.0987 122.889 42.776L114.147 21.138C113.692 19.9807 113.548 18.968 113.713 18.1C113.878 17.1907 114.312 16.4673 115.015 15.93C115.759 15.3513 116.772 15.062 118.053 15.062C119.128 15.062 120.016 15.3307 120.719 15.868C121.422 16.364 122.021 17.3353 122.517 18.782L129.337 36.948H127.911L134.979 17.976C135.31 16.984 135.785 16.2607 136.405 15.806C137.066 15.31 137.914 15.062 138.947 15.062C139.98 15.062 140.807 15.31 141.427 15.806C142.088 16.302 142.605 17.0253 142.977 17.976L149.921 36.948H148.743L155.501 18.534C155.997 17.2113 156.638 16.302 157.423 15.806C158.208 15.31 159.056 15.062 159.965 15.062C161.122 15.062 162.011 15.3513 162.631 15.93C163.292 16.5087 163.664 17.2527 163.747 18.162C163.871 19.0713 163.706 20.0633 163.251 21.138L154.571 42.776C154.075 44.0573 153.372 45.008 152.463 45.628C151.595 46.248 150.541 46.558 149.301 46.558C148.102 46.558 147.048 46.248 146.139 45.628C145.271 45.008 144.568 44.0573 144.031 42.776L136.591 23.432H140.621L133.367 42.714C132.871 43.9953 132.189 44.9667 131.321 45.628C130.453 46.248 129.399 46.558 128.159 46.558Z" fill="#FF7A00"/>
<path d="M174.865 46C173.253 46 172.013 45.566 171.145 44.698C170.277 43.83 169.843 42.59 169.843 40.978V7.312C169.843 5.7 170.277 4.46 171.145 3.592C172.013 2.724 173.253 2.29 174.865 2.29H189.869C192.969 2.29 195.615 2.74466 197.805 3.654C199.996 4.56333 201.649 5.86533 202.765 7.56C203.923 9.25466 204.501 11.28 204.501 13.636C204.501 16.24 203.757 18.4513 202.269 20.27C200.781 22.0887 198.735 23.308 196.131 23.928V22.936C199.149 23.4733 201.484 24.672 203.137 26.532C204.832 28.3507 205.679 30.7273 205.679 33.662C205.679 37.5473 204.336 40.5853 201.649 42.776C198.963 44.9253 195.263 46 190.551 46H174.865ZM179.019 38.87H189.249C191.729 38.87 193.548 38.3947 194.705 37.444C195.863 36.452 196.441 35.0053 196.441 33.104C196.441 31.2027 195.863 29.7767 194.705 28.826C193.548 27.8753 191.729 27.4 189.249 27.4H179.019V38.87ZM179.019 20.27H188.195C190.593 20.27 192.37 19.8153 193.527 18.906C194.685 17.9967 195.263 16.6327 195.263 14.814C195.263 13.0367 194.685 11.6933 193.527 10.784C192.37 9.87466 190.593 9.42 188.195 9.42H179.019V20.27ZM227.957 46.682C224.361 46.682 221.261 46.0413 218.657 44.76C216.094 43.4373 214.11 41.598 212.705 39.242C211.341 36.8447 210.659 34.034 210.659 30.81C210.659 27.6687 211.32 24.92 212.643 22.564C213.965 20.1667 215.805 18.3067 218.161 16.984C220.558 15.62 223.265 14.938 226.283 14.938C228.473 14.938 230.457 15.31 232.235 16.054C234.012 16.7567 235.541 17.79 236.823 19.154C238.104 20.4767 239.075 22.1093 239.737 24.052C240.398 25.9533 240.729 28.082 240.729 30.438C240.729 31.2233 240.481 31.8227 239.985 32.236C239.489 32.608 238.765 32.794 237.815 32.794H218.347V27.958H233.971L232.979 28.826C232.979 27.1313 232.731 25.726 232.235 24.61C231.739 23.4527 231.015 22.5847 230.065 22.006C229.155 21.4273 228.019 21.138 226.655 21.138C225.125 21.138 223.823 21.4893 222.749 22.192C221.674 22.8947 220.847 23.9073 220.269 25.23C219.69 26.5527 219.401 28.144 219.401 30.004V30.5C219.401 33.6413 220.124 35.956 221.571 37.444C223.059 38.932 225.249 39.676 228.143 39.676C229.135 39.676 230.271 39.552 231.553 39.304C232.834 39.056 234.033 38.6633 235.149 38.126C236.099 37.6713 236.947 37.5267 237.691 37.692C238.435 37.816 239.013 38.1467 239.427 38.684C239.84 39.2213 240.067 39.8413 240.109 40.544C240.191 41.2467 240.047 41.9493 239.675 42.652C239.303 43.3133 238.683 43.8713 237.815 44.326C236.409 45.1113 234.818 45.69 233.041 46.062C231.305 46.4753 229.61 46.682 227.957 46.682ZM250.886 46.558C249.357 46.558 248.179 46.1447 247.352 45.318C246.567 44.4913 246.174 43.3133 246.174 41.784V19.774C246.174 18.2447 246.567 17.0873 247.352 16.302C248.179 15.4753 249.315 15.062 250.762 15.062C252.25 15.062 253.387 15.4753 254.172 16.302C254.957 17.0873 255.35 18.2447 255.35 19.774V23.308L254.668 21.262C255.619 19.2367 257.024 17.6867 258.884 16.612C260.785 15.496 262.935 14.938 265.332 14.938C267.771 14.938 269.775 15.4133 271.346 16.364C272.917 17.2733 274.095 18.6787 274.88 20.58C275.665 22.44 276.058 24.8167 276.058 27.71V41.784C276.058 43.3133 275.645 44.4913 274.818 45.318C274.033 46.1447 272.875 46.558 271.346 46.558C269.858 46.558 268.701 46.1447 267.874 45.318C267.089 44.4913 266.696 43.3133 266.696 41.784V28.144C266.696 26.036 266.303 24.5273 265.518 23.618C264.774 22.6673 263.617 22.192 262.046 22.192C260.062 22.192 258.471 22.812 257.272 24.052C256.115 25.292 255.536 26.9453 255.536 29.012V41.784C255.536 44.9667 253.986 46.558 250.886 46.558ZM287.759 46.496C286.23 46.496 285.052 46.062 284.225 45.194C283.44 44.2847 283.047 43.024 283.047 41.412V20.208C283.047 18.5547 283.44 17.294 284.225 16.426C285.052 15.5167 286.23 15.062 287.759 15.062C289.247 15.062 290.384 15.5167 291.169 16.426C291.996 17.294 292.409 18.5547 292.409 20.208V41.412C292.409 43.024 292.017 44.2847 291.231 45.194C290.446 46.062 289.289 46.496 287.759 46.496ZM287.759 9.978C286.023 9.978 284.68 9.58533 283.729 8.8C282.82 7.97333 282.365 6.816 282.365 5.328C282.365 3.79867 282.82 2.64133 283.729 1.856C284.68 1.02933 286.023 0.615997 287.759 0.615997C289.495 0.615997 290.818 1.02933 291.727 1.856C292.637 2.64133 293.091 3.79867 293.091 5.328C293.091 6.816 292.637 7.97333 291.727 8.8C290.818 9.58533 289.495 9.978 287.759 9.978ZM304.349 46.558C302.82 46.558 301.642 46.1447 300.815 45.318C300.03 44.4913 299.637 43.3133 299.637 41.784V19.774C299.637 18.2447 300.03 17.0873 300.815 16.302C301.642 15.4753 302.778 15.062 304.225 15.062C305.713 15.062 306.85 15.4753 307.635 16.302C308.42 17.0873 308.813 18.2447 308.813 19.774V23.308L308.131 21.262C309.082 19.2367 310.487 17.6867 312.347 16.612C314.248 15.496 316.398 14.938 318.795 14.938C321.234 14.938 323.238 15.4133 324.809 16.364C326.38 17.2733 327.558 18.6787 328.343 20.58C329.128 22.44 329.521 24.8167 329.521 27.71V41.784C329.521 43.3133 329.108 44.4913 328.281 45.318C327.496 46.1447 326.338 46.558 324.809 46.558C323.321 46.558 322.164 46.1447 321.337 45.318C320.552 44.4913 320.159 43.3133 320.159 41.784V28.144C320.159 26.036 319.766 24.5273 318.981 23.618C318.237 22.6673 317.08 22.192 315.509 22.192C313.525 22.192 311.934 22.812 310.735 24.052C309.578 25.292 308.999 26.9453 308.999 29.012V41.784C308.999 44.9667 307.449 46.558 304.349 46.558Z" fill="#5A3224"/>
</svg>
