<svg width="153" height="28" viewBox="0 0 153 28" fill="none" xmlns="http://www.w3.org/2000/svg">
<path fill-rule="evenodd" clip-rule="evenodd" d="M82.4425 2.80735H88.2635L88.6336 2.81351C92.4057 2.94098 94.5032 5.03012 94.5033 8.23082C94.5033 10.6933 93.2925 12.2211 91.7713 12.9381V13.0313C93.8514 13.7482 95.2174 15.3691 95.2174 18.2368C95.2174 21.981 92.945 24.4086 88.9927 24.5567L88.6048 24.5643H82.4425L82.3219 24.5615C81.1232 24.5006 80.1621 23.5354 80.1012 22.332L80.0985 22.2107V5.16097C80.0985 3.9017 81.0832 2.87309 82.3219 2.81009L82.4425 2.80735Z" fill="#1E1E1E"/>
<path fill-rule="evenodd" clip-rule="evenodd" d="M112.147 0H113.373C115.018 0 116.533 0.634934 117.669 1.68879C118.699 0.64763 120.128 0 121.714 0C123.169 9.82593e-06 124.492 0.546097 125.496 1.44068C126.52 0.544771 127.86 0 129.331 0C131.035 8.1366e-05 132.563 0.731459 133.627 1.89373C134.877 0.720866 136.555 0 138.407 0C140.215 1.22769e-05 141.882 0.693851 143.136 1.84712C144.185 0.713512 145.683 0 147.356 0C150.484 0.00017638 153 2.54321 153 5.6565V20.5184C153 24.2928 149.95 27.3716 146.163 27.3716C144.318 27.3716 142.619 26.632 141.375 25.4087C140.336 26.6084 138.805 27.3716 137.087 27.3716C135.599 27.3716 134.249 26.7993 133.239 25.8651C132.206 26.8003 130.837 27.3716 129.331 27.3716C127.69 27.3716 126.214 26.6942 125.156 25.6074C123.945 26.7028 122.341 27.3716 120.577 27.3716C118.733 27.3715 117.033 26.632 115.789 25.4087C114.751 26.6083 113.22 27.3716 111.502 27.3716C110.099 27.3716 108.82 26.8622 107.831 26.0214C106.864 26.8609 105.603 27.3716 104.219 27.3716H100.708C98.5699 27.3716 96.6568 26.4337 95.3456 24.9508C93.5827 26.6121 91.2016 27.3716 88.6048 27.3716H82.4425C79.6516 27.3716 77.397 25.1546 77.2959 22.4033C76.0405 24.7175 73.5974 26.2675 70.8163 26.2675C68.4455 26.2674 66.3147 25.139 64.9596 23.3649C63.6094 25.1388 61.4822 26.2675 59.1153 26.2675C56.2651 26.2675 53.7725 24.6346 52.5555 22.2216C52.3683 22.438 52.1737 22.6493 51.9702 22.8529C49.5387 25.2843 46.1668 26.5587 42.3768 26.5588C38.7118 26.5588 35.4373 25.364 33.0322 23.0674C32.1226 24.9574 30.1934 26.2675 27.9494 26.2675C26.3167 26.2674 24.8519 25.5727 23.8241 24.467C22.7962 25.5727 21.3314 26.2674 19.6987 26.2675C18.4943 26.2675 17.3812 25.8887 16.4671 25.2469C15.6611 25.9569 14.6025 26.4216 13.3226 26.4409C13.2448 26.442 13.1679 26.4422 13.0923 26.4422C9.44255 26.4422 6.12139 25.2486 3.70178 22.8631C1.27469 20.4703 0 17.1197 0 13.2794C2.7698e-05 9.43917 1.27481 6.08912 3.70178 3.69629C6.1214 1.31079 9.44252 0.116554 13.0923 0.116516C13.1679 0.116516 13.2448 0.117402 13.3226 0.118572C14.6024 0.137842 15.6612 0.601962 16.4671 1.31183C17.3811 0.670055 18.4943 0.29129 19.6987 0.29129C21.3314 0.291385 22.7962 0.986082 23.8241 2.0918C24.8519 0.986085 26.3168 0.291372 27.9494 0.29129C30.1932 0.29129 32.1225 1.60102 33.0322 3.49068C35.4372 1.19441 38.7121 0 42.3768 0C45.7692 1.50905e-05 48.83 1.01642 51.1813 2.97664C52.1481 1.37893 53.8974 0.291338 55.9324 0.29129L56.2045 0.298143C57.8413 0.3773 59.2955 1.16811 60.262 2.37281C61.4601 1.08595 63.1641 0.29129 65.035 0.29129C66.9049 0.291365 68.6068 1.08556 69.8046 2.37075C70.8201 1.10102 72.3795 0.29129 74.1226 0.29129L74.4303 0.3002C75.9634 0.383844 77.3132 1.08845 78.2568 2.15349C79.1901 0.851567 80.7133 0 82.4425 0H88.2635C90.739 3.42213e-05 93.0373 0.657596 94.7514 2.18296C94.9012 2.31631 95.0436 2.45495 95.1797 2.59693C96.4878 1.01233 98.4643 0 100.683 0H104.157C105.653 2.23225e-05 107.004 0.595621 107.996 1.55857C109.106 0.589477 110.555 2.95856e-05 112.147 0ZM88.2635 2.80735H82.4425L82.3219 2.81009C81.0832 2.87309 80.0985 3.9017 80.0985 5.16097V22.2107L80.1012 22.332C80.1621 23.5354 81.1232 24.5006 82.3219 24.5615L82.4425 24.5643H88.6048L88.9927 24.5567C92.945 24.4086 95.2174 21.981 95.2174 18.2368C95.2174 15.3691 93.8514 13.7482 91.7713 13.0313V12.9381C93.2925 12.2211 94.5033 10.6933 94.5033 8.23082C94.5032 5.03012 92.4057 2.94098 88.6336 2.81351L88.2635 2.80735Z" fill="#1E1E1E"/>
<path d="M59.1154 23.4599C56.792 23.4599 54.843 21.6997 54.5981 19.3799L53.2008 6.1478C53.0288 4.51866 54.3008 3.09899 55.9326 3.09899C57.3721 3.09899 58.5675 4.21472 58.6723 5.65617L59.5322 17.48H59.5904L61.3599 6.25075C61.6459 4.43563 63.2044 3.09899 65.0348 3.09899C66.8679 3.09899 68.4279 4.43959 68.7108 6.25805L70.4565 17.48H70.5437L71.4052 5.63503C71.5092 4.20549 72.6947 3.09899 74.1223 3.09899C75.7467 3.09899 77.0102 4.51717 76.8298 6.138L75.3555 19.3835C75.0972 21.7046 73.1426 23.4599 70.8164 23.4599C68.5429 23.4599 66.6155 21.7811 66.2947 19.5213L64.9944 10.3624H64.9363L63.6112 19.5525C63.2878 21.7956 61.3728 23.4599 59.1154 23.4599Z" fill="#DF6E1D"/>
<path d="M42.3768 23.7517C36.1011 23.7517 31.9464 19.5804 31.9464 13.2796C31.9464 6.97874 36.1011 2.80737 42.3768 2.80737C48.6815 2.80737 52.8652 6.97874 52.8652 13.2796C52.8652 19.5512 48.6815 23.7517 42.3768 23.7517ZM38.1349 13.2796C38.1349 15.9924 39.8781 17.9177 42.4058 17.9177C44.9335 17.9177 46.7058 16.0216 46.7058 13.2796C46.7058 10.5375 44.9335 8.64146 42.4058 8.64146C39.8781 8.64146 38.1349 10.5375 38.1349 13.2796Z" fill="#DF6E1D"/>
<path d="M137.087 24.5643C135.502 24.5643 134.216 23.2739 134.216 21.6821V7.01497C134.216 4.69118 136.093 2.80739 138.407 2.80739C140.402 2.80739 142.12 4.21873 142.515 6.18158L144.484 15.9652C144.487 15.981 144.501 15.9925 144.517 15.9925C144.536 15.9925 144.551 15.9769 144.551 15.958L144.408 5.80907C144.384 4.15822 145.711 2.80739 147.355 2.80739C148.923 2.80739 150.193 4.08302 150.193 5.6566V20.5182C150.193 22.7528 148.389 24.5643 146.163 24.5643C144.293 24.5643 142.669 23.2726 142.24 21.4448L139.881 11.3747C139.877 11.3591 139.863 11.3481 139.847 11.3481C139.828 11.3481 139.812 11.3638 139.813 11.3831L139.957 21.6414C139.98 23.2489 138.688 24.5643 137.087 24.5643Z" fill="#DF6E1D"/>
<path d="M111.502 24.5643C109.916 24.5643 108.631 23.2739 108.631 21.6821V6.33784C108.631 4.38802 110.205 2.80739 112.147 2.80739H113.374C115.047 2.80739 116.489 3.9916 116.82 5.63856L118.899 15.9652C118.902 15.981 118.916 15.9925 118.932 15.9925C118.951 15.9925 118.966 15.9769 118.966 15.958L118.822 5.75343C118.799 4.13318 120.101 2.80739 121.714 2.80739C123.312 2.80739 124.608 4.10793 124.608 5.71224V20.5182C124.608 22.7528 122.803 24.5643 120.578 24.5643C118.708 24.5643 117.083 23.2726 116.655 21.4448L114.295 11.3747C114.292 11.3591 114.278 11.3481 114.262 11.3481C114.243 11.3481 114.227 11.3638 114.227 11.3831L114.372 21.6413C114.395 23.2489 113.103 24.5643 111.502 24.5643Z" fill="#DF6E1D"/>
<path d="M129.33 24.5643C127.659 24.5643 126.303 23.2037 126.303 21.5252V5.8465C126.303 4.16804 127.659 2.80739 129.33 2.80739C131.002 2.80739 132.357 4.16805 132.357 5.8465V21.5252C132.357 23.2037 131.002 24.5643 129.33 24.5643Z" fill="#DF6E1D"/>
<path d="M100.708 24.5643C98.3005 24.5643 96.3488 22.6048 96.3488 20.1876V7.15841C96.3488 4.7554 98.2891 2.80739 100.682 2.80739H104.157C105.657 2.80739 106.873 4.02849 106.873 5.5348C106.873 7.0411 105.657 8.2622 104.157 8.2622H102.616C102.498 8.2622 102.403 8.3579 102.403 8.47594V10.9562C102.403 11.0521 102.48 11.1299 102.576 11.1299H103.598C104.944 11.1299 106.035 12.2254 106.035 13.5768C106.035 14.9281 104.944 16.0236 103.598 16.0236H102.576C102.48 16.0236 102.403 16.1014 102.403 16.1973V18.8928C102.403 19.0125 102.499 19.1095 102.619 19.1095H104.219C105.719 19.1095 106.935 20.3306 106.935 21.8369C106.935 23.3432 105.719 24.5643 104.219 24.5643H100.708Z" fill="#DF6E1D"/>
<path d="M82.4425 24.5643C81.1478 24.5643 80.0982 23.5105 80.0982 22.2107V5.161C80.0982 3.86113 81.1478 2.80737 82.4425 2.80737H88.2633C92.2682 2.80737 94.5035 4.92696 94.5035 8.23102C94.5035 10.6935 93.2928 12.2208 91.7715 12.9377V13.0313C93.8516 13.7482 95.2176 15.369 95.2176 18.2367C95.2176 22.1018 92.796 24.5643 88.6048 24.5643H82.4425ZM86.1522 19.7017H87.3009C88.4496 19.7017 89.1326 18.9848 89.1326 17.7068C89.1326 16.4288 88.4496 15.7119 87.3009 15.7119H86.1522V19.7017ZM86.1522 11.0364H87.1146C88.2633 11.0364 88.8842 10.3194 88.8842 9.29081C88.8842 8.23102 88.2633 7.54527 87.1146 7.54527H86.1522V11.0364Z" fill="#DF6E1D"/>
<path d="M25.117 15.6131V20.6158C25.117 22.1866 26.3852 23.4599 27.9497 23.4599C29.5142 23.4599 30.7825 22.1866 30.7825 20.6158V5.94311C30.7825 4.37235 29.5142 3.09899 27.9497 3.09899C26.3852 3.09899 25.117 4.37235 25.117 5.94311V10.3624H22.5312V5.94311C22.5312 4.37235 21.2629 3.09899 19.6984 3.09899C18.1339 3.09899 16.8656 4.37234 16.8656 5.9431V20.6158C16.8656 22.1866 18.1339 23.4599 19.6984 23.4599C21.2629 23.4599 22.5312 22.1866 22.5312 20.6158V15.6131H25.117Z" fill="#DF6E1D"/>
<path d="M2.80737 13.2795C2.80737 19.697 7.0202 23.635 13.0925 23.635C13.1543 23.635 13.217 23.6346 13.2806 23.6336C14.5651 23.6143 15.4749 22.4732 15.4749 21.1834V19.4957C15.4749 18.38 14.32 17.6259 13.2087 17.6259C10.9715 17.6259 9.05397 16.1674 9.05397 13.2795C9.05397 10.3917 10.9715 8.93314 13.2087 8.93314C14.32 8.93314 15.4749 8.17911 15.4749 7.06336V5.37567C15.4749 4.08584 14.5651 2.94479 13.2806 2.92545C13.217 2.92449 13.1543 2.92403 13.0925 2.92403C7.0202 2.92403 2.80737 6.86204 2.80737 13.2795Z" fill="#DF6E1D"/>
</svg>
