<svg width="70" height="46" viewBox="0 0 70 46" fill="none" xmlns="http://www.w3.org/2000/svg">
<path d="M0.279358 10.1073C0.279358 4.58444 4.75651 0.107283 10.2794 0.107283H64.7206C67.482 0.107283 69.7206 2.34586 69.7206 5.10728V40.8927C69.7206 43.6541 67.4821 45.8927 64.7206 45.8927H5.27937C2.51794 45.8927 0.279358 43.6541 0.279358 40.8927V10.1073Z" fill="#110E0E"/>
<path d="M51.3189 20.6568C49.3367 20.6568 47.6739 19.161 47.4649 17.1898L46.2729 5.94583C46.1261 4.56146 47.2114 3.3551 48.6035 3.3551C49.8316 3.3551 50.8515 4.30319 50.9409 5.52806L51.6746 15.5754H51.7242L53.2339 6.0333C53.4779 4.4909 54.8075 3.3551 56.3691 3.3551C57.9331 3.3551 59.264 4.49428 59.5053 6.03951L60.9947 15.5754H61.0691L61.8041 5.5101C61.8928 4.29535 62.9042 3.3551 64.1222 3.3551C65.508 3.3551 66.586 4.56019 66.4321 5.9375L65.1743 17.1929C64.9539 19.1652 63.2863 20.6568 61.3017 20.6568C59.3621 20.6568 57.7177 19.2302 57.444 17.31L56.3347 9.5272H56.2851L55.1546 17.3365C54.8786 19.2426 53.2449 20.6568 51.3189 20.6568Z" fill="white"/>
<path d="M37.0383 20.9048C31.6842 20.9048 28.1396 17.3601 28.1396 12.006C28.1396 6.65191 31.6842 3.10728 37.0383 3.10728C42.4172 3.10728 45.9866 6.65191 45.9866 12.006C45.9866 17.3354 42.4172 20.9048 37.0383 20.9048ZM33.4193 12.006C33.4193 14.3113 34.9066 15.9472 37.0631 15.9472C39.2196 15.9472 40.7316 14.3361 40.7316 12.006C40.7316 9.67599 39.2196 8.0648 37.0631 8.0648C34.9066 8.0648 33.4193 9.67599 33.4193 12.006Z" fill="white"/>
<path d="M24.7297 20.6568C23.395 20.6568 22.3129 19.5748 22.3129 18.24V13.989H20.1068V18.24C20.1068 19.5748 19.0248 20.6568 17.69 20.6568C16.3553 20.6568 15.2733 19.5748 15.2733 18.24V5.77189C15.2733 4.43713 16.3553 3.3551 17.69 3.3551C19.0248 3.3551 20.1068 4.43713 20.1068 5.77189V9.5272H22.3129V5.77189C22.3129 4.43713 23.395 3.3551 24.7297 3.3551C26.0645 3.3551 27.1465 4.43713 27.1465 5.77189V18.24C27.1465 19.5748 26.0645 20.6568 24.7297 20.6568Z" fill="white"/>
<path d="M12.0542 20.8055C6.87356 20.8055 3.27936 17.4592 3.27936 12.006C3.27936 6.55269 6.87356 3.20636 12.0542 3.20636C12.1069 3.20636 12.1604 3.20675 12.2147 3.20757C13.3106 3.224 14.0867 4.19361 14.0867 5.28964V6.72376C14.0867 7.67187 13.1014 8.3126 12.1533 8.3126C10.2447 8.3126 8.60869 9.55198 8.60869 12.006C8.60869 14.4599 10.2447 15.6993 12.1533 15.6993C13.1014 15.6993 14.0867 16.34 14.0867 17.2881V18.7223C14.0867 19.8183 13.3106 20.7879 12.2147 20.8043C12.1604 20.8052 12.1069 20.8055 12.0542 20.8055Z" fill="white"/>
<path d="M53.7194 41.8927C52.3668 41.8927 51.2702 40.7962 51.2702 39.4436V26.9802C51.2702 25.0055 52.871 23.4048 54.8456 23.4048C56.5473 23.4048 58.0131 24.6041 58.3502 26.272L60.0301 34.5856C60.0329 34.5991 60.0447 34.6088 60.0585 34.6088C60.0746 34.6088 60.0876 34.5956 60.0874 34.5795L59.9651 25.9555C59.9452 24.5527 61.0769 23.4048 62.4798 23.4048C63.817 23.4048 64.9009 24.4888 64.9009 25.8259V38.4546C64.9009 40.3534 63.3616 41.8927 61.4628 41.8927C59.8672 41.8927 58.4814 40.7951 58.116 39.242L56.1028 30.6848C56.0997 30.6716 56.0878 30.6622 56.0742 30.6622C56.0579 30.6622 56.0447 30.6756 56.0449 30.692L56.1683 39.409C56.1876 40.775 55.0855 41.8927 53.7194 41.8927Z" fill="#DF6E1D"/>
<path d="M31.8911 41.8927C30.5385 41.8927 29.4419 40.7962 29.4419 39.4436V26.4048C29.4419 24.7479 30.7851 23.4048 32.4419 23.4048H33.4881C34.9159 23.4048 36.1458 24.4111 36.4286 25.8106L38.2018 34.5856C38.2046 34.5991 38.2164 34.6088 38.2302 34.6088C38.2463 34.6088 38.2593 34.5956 38.2591 34.5795L38.1361 25.9082C38.1166 24.5314 39.2273 23.4048 40.6042 23.4048C41.9675 23.4048 43.0726 24.5099 43.0726 25.8732V38.4546C43.0726 40.3534 41.5333 41.8927 39.6344 41.8927C38.0389 41.8927 36.653 40.7951 36.2877 39.242L34.2745 30.6848C34.2714 30.6716 34.2595 30.6622 34.2459 30.6622C34.2296 30.6622 34.2164 30.6756 34.2166 30.692L34.34 39.409C34.3593 40.775 33.2572 41.8927 31.8911 41.8927Z" fill="#DF6E1D"/>
<path d="M47.1017 41.8927C45.6754 41.8927 44.5192 40.7365 44.5192 39.3103V25.9873C44.5192 24.561 45.6754 23.4048 47.1017 23.4048C48.5279 23.4048 49.6841 24.561 49.6841 25.9873V39.3103C49.6841 40.7365 48.5279 41.8927 47.1017 41.8927Z" fill="#DF6E1D"/>
<path d="M22.6824 41.8927C20.6284 41.8927 18.9633 40.2276 18.9633 38.1736V27.1021C18.9633 25.0601 20.6186 23.4048 22.6606 23.4048H25.6248C26.9048 23.4048 27.9424 24.4424 27.9424 25.7224C27.9424 27.0024 26.9048 28.04 25.6248 28.04H24.3099C24.2096 28.04 24.1283 28.1213 24.1283 28.2216V30.3293C24.1283 30.4108 24.1943 30.4768 24.2758 30.4768H25.148C26.2963 30.4768 27.2272 31.4077 27.2272 32.5561C27.2272 33.7044 26.2963 34.6353 25.148 34.6353H24.2758C24.1943 34.6353 24.1283 34.7014 24.1283 34.7829V37.0734C24.1283 37.1751 24.2107 37.2575 24.3124 37.2575H25.6778C26.9577 37.2575 27.9954 38.2951 27.9954 39.5751C27.9954 40.8551 26.9577 41.8927 25.6778 41.8927H22.6824Z" fill="#DF6E1D"/>
<path d="M7.09902 41.8927C5.99445 41.8927 5.09902 40.9973 5.09902 39.8927V25.4048C5.09902 24.3002 5.99445 23.4048 7.09902 23.4048H12.0651C15.4819 23.4048 17.389 25.2059 17.389 28.0135C17.389 30.106 16.356 31.4038 15.0582 32.013V32.0925C16.8328 32.7017 17.9982 34.079 17.9982 36.5158C17.9982 39.8002 15.9322 41.8927 12.3565 41.8927H7.09902ZM10.264 37.7607H11.244C12.224 37.7607 12.8068 37.1515 12.8068 36.0656C12.8068 34.9796 12.224 34.3704 11.244 34.3704H10.264V37.7607ZM10.264 30.3973H11.0851C12.0651 30.3973 12.5949 29.7881 12.5949 28.9141C12.5949 28.0135 12.0651 27.4308 11.0851 27.4308H10.264V30.3973Z" fill="#DF6E1D"/>
</svg>
