<svg width="20" height="21" viewBox="0 0 20 21" fill="none" xmlns="http://www.w3.org/2000/svg">
<path d="M5.8 0.371582H14.2C17.4 0.371582 20 2.97158 20 6.17158V14.5716C20 16.1098 19.3889 17.5851 18.3012 18.6728C17.2135 19.7605 15.7383 20.3716 14.2 20.3716H5.8C2.6 20.3716 0 17.7716 0 14.5716V6.17158C0 4.63333 0.61107 3.15807 1.69878 2.07036C2.78649 0.982652 4.26174 0.371582 5.8 0.371582ZM5.6 2.37158C4.64522 2.37158 3.72955 2.75087 3.05442 3.426C2.37928 4.10113 2 5.0168 2 5.97158V14.7716C2 16.7616 3.61 18.3716 5.6 18.3716H14.4C15.3548 18.3716 16.2705 17.9923 16.9456 17.3172C17.6207 16.642 18 15.7264 18 14.7716V5.97158C18 3.98158 16.39 2.37158 14.4 2.37158H5.6ZM15.25 3.87158C15.5815 3.87158 15.8995 4.00328 16.1339 4.2377C16.3683 4.47212 16.5 4.79006 16.5 5.12158C16.5 5.4531 16.3683 5.77105 16.1339 6.00547C15.8995 6.23989 15.5815 6.37158 15.25 6.37158C14.9185 6.37158 14.6005 6.23989 14.3661 6.00547C14.1317 5.77105 14 5.4531 14 5.12158C14 4.79006 14.1317 4.47212 14.3661 4.2377C14.6005 4.00328 14.9185 3.87158 15.25 3.87158ZM10 5.37158C11.3261 5.37158 12.5979 5.89837 13.5355 6.83605C14.4732 7.77373 15 9.0455 15 10.3716C15 11.6977 14.4732 12.9694 13.5355 13.9071C12.5979 14.8448 11.3261 15.3716 10 15.3716C8.67392 15.3716 7.40215 14.8448 6.46447 13.9071C5.52678 12.9694 5 11.6977 5 10.3716C5 9.0455 5.52678 7.77373 6.46447 6.83605C7.40215 5.89837 8.67392 5.37158 10 5.37158ZM10 7.37158C9.20435 7.37158 8.44129 7.68765 7.87868 8.25026C7.31607 8.81287 7 9.57593 7 10.3716C7 11.1672 7.31607 11.9303 7.87868 12.4929C8.44129 13.0555 9.20435 13.3716 10 13.3716C10.7956 13.3716 11.5587 13.0555 12.1213 12.4929C12.6839 11.9303 13 11.1672 13 10.3716C13 9.57593 12.6839 8.81287 12.1213 8.25026C11.5587 7.68765 10.7956 7.37158 10 7.37158Z" fill="#DF6E1D"/>
</svg>
