<svg width="20" height="21" viewBox="0 0 20 21" fill="none" xmlns="http://www.w3.org/2000/svg">
<path d="M14.6939 4.19158C13.9965 3.41111 13.6121 2.40898 13.6122 1.37158H10.4592V13.7716C10.4354 14.4428 10.1464 15.0787 9.65337 15.5451C9.1603 16.0115 8.50163 16.272 7.81633 16.2716C6.36735 16.2716 5.16327 15.1116 5.16327 13.6716C5.16327 11.9516 6.85714 10.6616 8.60204 11.1916V8.03158C5.08163 7.57158 2 10.2516 2 13.6716C2 17.0016 4.81633 19.3716 7.80612 19.3716C11.0102 19.3716 13.6122 16.8216 13.6122 13.6716V7.38158C14.8908 8.28143 16.4259 8.76423 18 8.76158V5.67158C18 5.67158 16.0816 5.76158 14.6939 4.19158Z" fill="#DF6E1D"/>
</svg>
